<svg width="25" height="18" viewBox="0 0 25 18" fill="none" xmlns="http://www.w3.org/2000/svg">
<path d="M21.1532 1.49586C19.5698 0.798543 17.8554 0.292424 16.0697 0C16.0383 0.000422559 16.0083 0.0125504 15.9863 0.0337415C15.7721 0.404895 15.522 0.88852 15.3554 1.25967C13.4613 0.989913 11.535 0.989913 9.64094 1.25967C9.47427 0.877273 9.22426 0.404895 8.99806 0.0337415C8.98616 0.0112473 8.95044 0 8.91473 0C7.12896 0.292424 5.42653 0.798543 3.83125 1.49586C3.81935 1.49586 3.80744 1.50711 3.79554 1.51836C0.557354 6.09592 -0.335528 10.5498 0.10496 14.9586C0.10496 14.9811 0.116865 15.0036 0.140675 15.0149C2.28359 16.4995 4.34317 17.3992 6.37894 17.9953C6.41466 18.0066 6.45037 17.9953 6.46228 17.9728C6.93848 17.3543 7.36706 16.7019 7.73612 16.0159C7.75993 15.9709 7.73612 15.9259 7.6885 15.9146C7.00991 15.6672 6.36704 15.3748 5.73607 15.0374C5.68845 15.0149 5.68845 14.9474 5.72416 14.9136C5.85512 14.8237 5.98607 14.7224 6.11703 14.6325C6.14084 14.61 6.17656 14.61 6.20037 14.6212C10.2957 16.387 14.7125 16.387 18.7602 14.6212C18.784 14.61 18.8198 14.61 18.8436 14.6325C18.9745 14.7337 19.1055 14.8237 19.2364 14.9249C19.2841 14.9586 19.2841 15.0261 19.2245 15.0486C18.6055 15.3973 17.9507 15.6784 17.2721 15.9259C17.2245 15.9371 17.2126 15.9934 17.2245 16.0271C17.6054 16.7132 18.034 17.3655 18.4983 17.9841C18.534 17.9953 18.5698 18.0066 18.6055 17.9953C20.6531 17.3992 22.7127 16.4995 24.8556 15.0149C24.8794 15.0036 24.8914 14.9811 24.8914 14.9586C25.4152 9.8637 24.0223 5.44359 21.2008 1.51836C21.1889 1.50711 21.177 1.49586 21.1532 1.49586ZM8.35519 12.2706C7.12896 12.2706 6.10512 11.2021 6.10512 9.88619C6.10512 8.57028 7.10515 7.50181 8.35519 7.50181C9.61713 7.50181 10.6172 8.58153 10.6052 9.88619C10.6052 11.2021 9.60522 12.2706 8.35519 12.2706ZM16.653 12.2706C15.4268 12.2706 14.403 11.2021 14.403 9.88619C14.403 8.57028 15.403 7.50181 16.653 7.50181C17.915 7.50181 18.915 8.58153 18.9031 9.88619C18.9031 11.2021 17.915 12.2706 16.653 12.2706Z" fill="#F88409"/>
</svg>
